<svg id="Capa_1" enable-background="new 0 0 511.164 511.164" height="512" viewBox="0 0 511.164 511.164" width="512" xmlns="http://www.w3.org/2000/svg"><g id="XMLID_1171_"><path id="XMLID_1177_" d="m354.118 420.893 15.743 86.192h141.303l-298.093-462.306c-17.001-26.621-46.009-42.514-77.595-42.514-50.767 0-92.069 41.302-92.069 92.07v11.265h-43.407v30h43.407v107c0 92.73 71.162 169.14 161.741 177.519v38.681c-21.55 6.465-37.301 26.472-37.301 50.098h30c0-12.297 10.004-22.301 22.301-22.301s22.301 10.004 22.301 22.301h30c0-23.626-15.752-43.634-37.301-50.098v-37.907zm40.761 56.193-10.264-56.192h33.245l37.346 56.192zm-157.495-338.504 95.145 148.976h-41.624c-29.512 0-53.521-24.009-53.521-53.521zm-163.977 104.017v-148.264c0-34.226 27.844-62.07 62.07-62.07 21.294 0 40.85 10.714 52.312 28.661l19.596 30.683v142.43c0 46.053 37.467 83.521 83.521 83.521h60.784l46.835 73.334h-176.824c-81.77-.001-148.294-66.525-148.294-148.295z"/><path id="XMLID_1180_" d="m125.799 89.875c-7.846 0-15.363 6.899-15 15 .364 8.127 6.591 15 15 15 7.846 0 15.363-6.899 15-15-.364-8.127-6.591-15-15-15z"/></g></svg>