<svg id="Capa_1" enable-background="new 0 0 510 510" height="512" viewBox="0 0 510 510" width="512" xmlns="http://www.w3.org/2000/svg"><g id="XMLID_604_"><path id="XMLID_605_" d="m162.874 206.571c-8.284 0-15 6.716-15 15v15.929c0 8.284 6.716 15 15 15s15-6.716 15-15v-15.929c0-8.284-6.716-15-15-15z"/><path id="XMLID_613_" d="m117.708 299.459c-7.846 0-15.363 6.899-15 15 .364 8.127 6.591 15 15 15 7.846 0 15.363-6.899 15-15-.364-8.127-6.591-15-15-15z"/><path id="XMLID_623_" d="m477.271 222.772c-15.497-15.627-24.031-36.354-24.031-58.362v-53.184h-30v53.184c0 29.975 11.624 58.204 32.729 79.486 15.497 15.627 24.031 36.354 24.031 58.362v43.58c0 12.647-10.289 22.936-22.936 22.936h-7.641v-27.286c0-92.528-75.277-167.805-167.805-167.805-18.115 0-44.206 7.489-60.356 12.772-11.008-21.49-33.127-35.6-58.263-35.812-17.452-.129-34.049 6.671-46.684 19.2-12.737 12.631-20.043 30.077-20.043 47.866v27.21c-32.05 9.629-56.316 34.952-65.216 68.207-17.944 5.391-31.056 22.063-31.056 41.741v.334c0 24.026 19.547 43.572 43.572 43.572h413.492c29.188 0 52.936-23.747 52.936-52.936v-43.58c0-29.974-11.624-58.203-32.729-79.485zm-57.847 146.001h-375.852c-7.483 0-13.572-6.088-13.572-13.572v-.334c0-7.483 6.089-13.572 13.572-13.572h12.795l2.018-12.635c4.784-29.96 26.489-52.344 55.296-57.027l12.593-2.047v-51.876c0-9.845 4.07-19.526 11.167-26.563 6.911-6.853 15.891-10.595 25.307-10.504 16.847.142 31.213 11.705 34.937 28.117l3.797 16.739 16.079-6.006c11.773-4.397 46.232-15.809 64.06-15.809 75.985 0 137.805 61.819 137.805 137.805v27.284z"/></g></svg>