<svg id="Capa_1" enable-background="new 0 0 510.667 510.667" height="512" viewBox="0 0 510.667 510.667" width="512" xmlns="http://www.w3.org/2000/svg"><path id="XMLID_111_" d="m480.752 266.145c-6.255-97.978-87.941-175.78-187.471-175.78-43.197 0-85.38 15.023-118.776 42.304-16.151 13.193-29.915 28.96-40.808 46.475-10.836-24.533-35.385-41.705-63.883-41.705-38.496.001-69.814 31.318-69.814 69.813v26.713c0 67.257 53.557 122.233 120.261 124.541.89.052 1.785.085 2.688.085h5.247v61.71h99.567v-61.71h132.089v61.71h99.567v-61.71h5.247c25.364 0 46-20.636 46-46v-3.354c.001-19.708-12.46-36.555-29.914-43.092zm-30.317-2.908h-58.083l-34.761-59.892 29.868-51.734c34.857 25.991 58.657 66.014 62.976 111.626zm-191.486-44.872h72.673l26.043 44.872h-124.839zm102.865-82.333-30.215 52.333h-72.615l-31.007-53.704c20.077-9.2 42.253-14.295 65.304-14.295 24.543 0 47.794 5.631 68.533 15.666zm-159.812 13.637 30.984 53.664-34.872 59.903h-58.487v-21.39c8.989-38.092 31.811-70.456 62.375-92.177zm-172.002 84.296v-1.865h28.218v-30h-27.874c2.536-19.526 19.263-34.66 39.469-34.66 21.953 0 39.813 17.859 39.813 39.813v57.959c-18.887 5.727-32.677 23.293-32.677 44.025v3.354c0 1.061.049 2.11.12 3.153-28.127-16.42-47.069-46.927-47.069-81.779zm167.764 156.336h-39.567v-31.71h39.567zm231.656 0h-39.567v-31.71h39.567zm51.247-77.71c0 8.822-7.178 16-16 16h-340.041c-.748 0-1.493-.011-2.237-.028-8.562-.299-15.44-7.339-15.44-15.972v-3.354c0-8.822 7.178-16 16-16h341.718c8.822 0 16 7.178 16 16z"/></svg>