<svg id="Capa_1" enable-background="new 0 0 508.092 508.092" height="512" viewBox="0 0 508.092 508.092" width="512" xmlns="http://www.w3.org/2000/svg"><path id="XMLID_1166_" d="m441.786 324.181v99.954c0 29.752-24.205 53.957-53.957 53.957h-27.694c11.902-15.602 17.409-35.301 15.152-54.935l-12.063-104.918c-.172-20.226-6.165-43.565-16.92-65.839-11.727-24.285-28.015-45.312-47.105-60.807l-.102-.083c-28.059-22.65-28.76-68.722-28.778-110.158.08-1.075.135-37.951.135-37.951 0-23.931-19.47-43.401-43.401-43.401h-62.386c-14.742 0-28.787 7.068-37.569 18.909l-8.142 10.976c-3.15 4.247-8.187 6.782-13.475 6.782h-15.066c-10.982 0-21.479 4.695-28.799 12.881s-10.817 19.141-9.595 30.054l2.591 23.129c1.678 14.974 11.192 28.258 24.829 34.667l24.965 11.734c-7.149 35.135-26.284 131.654-26.284 158.121v111.813c-23.297 1.423-41.817 20.819-41.817 44.467 0 24.57 19.989 44.56 44.56 44.56h218.694 88.27c46.294 0 83.957-37.663 83.957-83.957v-99.954h-30zm-214.733-294.181c7.389 0 13.401 6.012 13.401 13.401l-.135 34.771v1.725c-.883 6.54-6.488 11.603-13.266 11.603-7.389 0-13.401-6.012-13.401-13.401v-48.099zm-146.188 448.092c-8.028 0-14.56-6.532-14.56-14.56s6.531-14.56 14.56-14.56h91.808v-42.51c0-22.297 18.14-40.438 40.438-40.438h15v-30h-15c-15.04 0-28.983 4.754-40.438 12.816v-33.018h-30v103.149h-34.55v-111.72c0-18.709 14.105-96.476 28.039-163.626l2.405-11.588-46.364-21.792c-4.271-2.007-7.25-6.167-7.776-10.856l-2.591-23.128c-.374-3.34 1.183-5.642 2.145-6.717.961-1.075 3.076-2.878 6.436-2.878h15.065c14.742 0 28.786-7.069 37.569-18.909l8.142-10.976c3.15-4.247 8.188-6.782 13.475-6.782h18.985v48.099c0 23.931 19.47 43.401 43.401 43.401 4.952 0 9.707-.845 14.144-2.379 2.256 36.003 10.314 72.531 39.096 95.764 34.383 27.908 52.936 74.539 52.936 104.246v.859l12.255 106.593c1.504 13.08-2.659 26.218-11.421 36.045-8.758 9.823-21.327 15.458-34.486 15.463z"/></svg>